<svg width="7" height="7" viewBox="0 0 7 7" fill="none" xmlns="http://www.w3.org/2000/svg">
<path id="rhomboid" d="M6.18043 2.73084C5.33186 1.88227 4.48002 1.03041 3.63145 0.181838C3.38901 -0.0606126 2.97291 -0.0606126 2.73047 0.181838C1.8819 1.03041 1.03333 1.87899 0.184765 2.73084C-0.0576822 2.97329 -0.0576822 3.38939 0.184765 3.63184C1.03333 4.48042 1.88518 5.33227 2.73374 6.18085C2.97619 6.4233 3.39228 6.4233 3.63473 6.18085C4.4833 5.33227 5.33514 4.48042 6.18371 3.63184C6.31476 3.50079 6.36718 3.35007 6.36718 3.20591C6.36718 3.19609 6.36718 3.18953 6.36718 3.1797C6.36718 3.17315 6.36718 3.16332 6.36718 3.15677C6.36718 3.01261 6.31476 2.8619 6.18043 2.73084ZM3.1826 4.82771C2.63218 4.27728 2.08503 3.73013 1.53461 3.1797C2.08503 2.62928 2.63218 2.08212 3.1826 1.5317C3.73302 2.08212 4.28017 2.62928 4.83059 3.1797C4.28017 3.73013 3.73302 4.27728 3.1826 4.82771Z" fill="url(#paint0_linear_5_8364)"/>
<defs>
<linearGradient id="paint0_linear_5_8364" x1="-7.8509" y1="-7.68837" x2="297.985" y2="293.557" gradientUnits="userSpaceOnUse">
<stop stop-color="#BE965D"/>
<stop offset="0.2784" stop-color="#976F40"/>
<stop offset="0.4259" stop-color="#C99B61"/>
<stop offset="0.5584" stop-color="#F0BE7B"/>
<stop offset="0.6275" stop-color="#FFCB85"/>
<stop offset="0.7085" stop-color="#EEBC79"/>
<stop offset="0.8693" stop-color="#C0935B"/>
<stop offset="1" stop-color="#976F40"/>
</linearGradient>
</defs>
</svg>
